STARTFONT 2.1
COMMENT $XConsortium: luRS18.bdf,v 1.7 94/04/02 16:00:11 gildea Exp $
COMMENT  (c) Copyright Bigelow & Holmes 1986, 1985. Lucida is a registered
COMMENT  trademark of Bigelow & Holmes. See LEGAL NOTICE file for terms 
COMMENT  of the license. 
COMMENT GRID 0018 0018 0200 0200
COMMENT  
COMMENT  Translation to ISO8859-2 by Cub Soft;  Petr.Kolar@vslib.cz
COMMENT  
FONT -B&H-Lucida-Medium-R-Normal-Sans-18-180-75-75-P-106-ISO8859-2
SIZE 18 72 72
FONTBOUNDINGBOX 19 19 -1 -3
STARTPROPERTIES 20
COMMENT Begin LogicalFontDescription
FONTNAME_REGISTRY ""
FOUNDRY "B&H"
FAMILY_NAME "Lucida"
WEIGHT_NAME "Medium"
SLANT "R"
SETWIDTH_NAME "Normal"
ADD_STYLE_NAME "Sans"
PIXEL_SIZE 18
POINT_SIZE 180
RESOLUTION_X 75
RESOLUTION_Y 75
SPACING "P"
AVERAGE_WIDTH 106
CHARSET_REGISTRY "ISO8859"
CHARSET_ENCODING "2"
COMMENT END LogicalFontDescription
FONT_ASCENT 16
FONT_DESCENT 3
DEFAULT_CHAR 0
COPYRIGHT "Copyright Bigelow & Holmes 1986, 1985., Copyright 1996 Cub Soft"
FACE_NAME "Lucida Sans"
ENDPROPERTIES
CHARS 191
STARTCHAR space
ENCODING 32
SWIDTH 316 0
DWIDTH 5 0
BBX 1 1 0 0
BITMAP
00
ENDCHAR
STARTCHAR exclam
ENCODING 33
SWIDTH 205 0
DWIDTH 4 0
BBX 2 13 1 0
BITMAP
c0
c0
c0
c0
c0
c0
c0
c0
40
00
00
c0
c0
ENDCHAR
STARTCHAR quotedbl
ENCODING 34
SWIDTH 373 0
DWIDTH 7 0
BBX 5 4 1 10
BITMAP
d8
d8
90
90
ENDCHAR
STARTCHAR numbersign
ENCODING 35
SWIDTH 633 0
DWIDTH 12 0
BBX 11 13 1 0
BITMAP
0cc0
0cc0
0cc0
0880
7fe0
1100
3300
3300
ffc0
2200
6600
6600
6600
ENDCHAR
STARTCHAR dollar
ENCODING 36
SWIDTH 633 0
DWIDTH 12 0
BBX 8 15 3 -1
BITMAP
08
3e
4b
c8
c8
e8
78
3c
1e
17
13
13
d2
7c
10
ENDCHAR
STARTCHAR percent
ENCODING 37
SWIDTH 669 0
DWIDTH 13 0
BBX 11 13 1 0
BITMAP
7000
d840
88c0
8980
8900
da00
75c0
0b60
1220
3220
6220
4360
01c0
ENDCHAR
STARTCHAR ampersand
ENCODING 38
SWIDTH 697 0
DWIDTH 13 0
BBX 12 13 1 0
BITMAP
3e00
6300
6300
6200
3400
1800
2c60
6660
c340
c180
c1c0
6360
3c30
ENDCHAR
STARTCHAR apostrophe
ENCODING 39
SWIDTH 229 0
DWIDTH 4 0
BBX 2 4 1 10
BITMAP
c0
c0
40
80
ENDCHAR
STARTCHAR parenleft
ENCODING 40
SWIDTH 325 0
DWIDTH 6 0
BBX 4 16 1 -2
BITMAP
10
20
60
40
c0
c0
c0
c0
c0
c0
c0
c0
40
60
20
10
ENDCHAR
STARTCHAR parenright
ENCODING 41
SWIDTH 325 0
DWIDTH 6 0
BBX 4 16 1 -2
BITMAP
80
40
60
20
30
30
30
30
30
30
30
30
20
60
40
80
ENDCHAR
STARTCHAR asterisk
ENCODING 42
SWIDTH 482 0
DWIDTH 9 0
BBX 7 7 1 6
BITMAP
10
10
92
ee
10
6c
44
ENDCHAR
STARTCHAR plus
ENCODING 43
SWIDTH 633 0
DWIDTH 12 0
BBX 9 9 2 1
BITMAP
0800
0800
0800
0800
ff80
0800
0800
0800
0800
ENDCHAR
STARTCHAR comma
ENCODING 44
SWIDTH 316 0
DWIDTH 4 0
BBX 2 4 1 -2
BITMAP
c0
c0
40
80
ENDCHAR
STARTCHAR minus
ENCODING 45
SWIDTH 633 0
DWIDTH 12 0
BBX 9 1 2 5
BITMAP
ff80
ENDCHAR
STARTCHAR period
ENCODING 46
SWIDTH 316 0
DWIDTH 4 0
BBX 2 2 1 0
BITMAP
c0
c0
ENDCHAR
STARTCHAR slash
ENCODING 47
SWIDTH 494 0
DWIDTH 9 0
BBX 7 16 1 -2
BITMAP
02
02
06
04
0c
08
08
18
10
30
20
60
40
c0
80
80
ENDCHAR
STARTCHAR zero
ENCODING 48
SWIDTH 633 0
DWIDTH 12 0
BBX 9 13 2 0
BITMAP
3e00
6300
4100
c180
c180
c180
c180
c180
c180
c180
4100
6300
3e00
ENDCHAR
STARTCHAR one
ENCODING 49
SWIDTH 633 0
DWIDTH 12 0
BBX 5 13 3 0
BITMAP
18
f8
18
18
18
18
18
18
18
18
18
18
18
ENDCHAR
STARTCHAR two
ENCODING 50
SWIDTH 633 0
DWIDTH 12 0
BBX 8 13 2 0
BITMAP
7e
c7
03
03
03
06
0c
18
30
60
c0
ff
ff
ENDCHAR
STARTCHAR three
ENCODING 51
SWIDTH 633 0
DWIDTH 11 0
BBX 8 13 1 0
BITMAP
7e
c7
03
03
06
3c
06
03
03
03
03
c7
7e
ENDCHAR
STARTCHAR four
ENCODING 52
SWIDTH 633 0
DWIDTH 12 0
BBX 11 13 1 0
BITMAP
0180
0380
0780
0d80
0980
1180
3180
6180
c180
ffe0
0180
0180
0180
ENDCHAR
STARTCHAR five
ENCODING 53
SWIDTH 633 0
DWIDTH 12 0
BBX 8 13 3 0
BITMAP
ff
ff
80
80
80
f8
1e
07
03
03
03
c7
7e
ENDCHAR
STARTCHAR six
ENCODING 54
SWIDTH 633 0
DWIDTH 12 0
BBX 9 13 2 0
BITMAP
1e00
7300
6000
c000
c000
de00
e300
c180
c180
c180
c180
6300
3e00
ENDCHAR
STARTCHAR seven
ENCODING 55
SWIDTH 633 0
DWIDTH 12 0
BBX 9 13 2 0
BITMAP
ff80
ff80
0180
0300
0600
0600
0c00
1800
1800
3000
3000
6000
6000
ENDCHAR
STARTCHAR eight
ENCODING 56
SWIDTH 633 0
DWIDTH 12 0
BBX 9 13 2 0
BITMAP
3e00
6300
c180
c180
e100
7a00
3e00
6700
c380
c180
c180
6300
3e00
ENDCHAR
STARTCHAR nine
ENCODING 57
SWIDTH 633 0
DWIDTH 12 0
BBX 9 13 2 0
BITMAP
3e00
6300
c180
c180
c180
c180
6380
3d80
0180
0100
0300
c600
7c00
ENDCHAR
STARTCHAR colon
ENCODING 58
SWIDTH 316 0
DWIDTH 4 0
BBX 2 10 1 0
BITMAP
c0
c0
00
00
00
00
00
00
c0
c0
ENDCHAR
STARTCHAR semicolon
ENCODING 59
SWIDTH 316 0
DWIDTH 4 0
BBX 2 12 1 -2
BITMAP
c0
c0
00
00
00
00
00
00
c0
c0
40
80
ENDCHAR
STARTCHAR less
ENCODING 60
SWIDTH 633 0
DWIDTH 12 0
BBX 10 9 1 1
BITMAP
00c0
0380
0e00
3800
e000
3800
0e00
0380
00c0
ENDCHAR
STARTCHAR equal
ENCODING 61
SWIDTH 633 0
DWIDTH 12 0
BBX 9 4 2 3
BITMAP
ff80
0000
0000
ff80
ENDCHAR
STARTCHAR greater
ENCODING 62
SWIDTH 633 0
DWIDTH 12 0
BBX 10 9 1 1
BITMAP
c000
7000
1c00
0700
01c0
0700
1c00
7000
c000
ENDCHAR
STARTCHAR question
ENCODING 63
SWIDTH 422 0
DWIDTH 8 0
BBX 7 13 1 0
BITMAP
7c
ce
06
06
0c
30
60
60
60
00
00
60
60
ENDCHAR
STARTCHAR at
ENCODING 64
SWIDTH 858 0
DWIDTH 16 0
BBX 14 13 1 0
BITMAP
07e0
1c38
3008
63ec
4464
c864
98c4
99cc
dad8
4cf0
6000
3800
0fc0
ENDCHAR
STARTCHAR A
ENCODING 65
SWIDTH 690 0
DWIDTH 13 0
BBX 11 13 1 0
BITMAP
0600
0600
0f00
0b00
1980
1180
3180
20c0
7fc0
60c0
4060
c060
c060
ENDCHAR
STARTCHAR B
ENCODING 66
SWIDTH 575 0
DWIDTH 11 0
BBX 8 13 2 0
BITMAP
fe
c7
c3
c3
c3
c6
fc
c6
c3
c3
c3
c7
fe
ENDCHAR
STARTCHAR C
ENCODING 67
SWIDTH 692 0
DWIDTH 13 0
BBX 11 13 1 0
BITMAP
0fc0
38e0
6000
6000
c000
c000
c000
c000
c000
6000
7000
38e0
0fc0
ENDCHAR
STARTCHAR D
ENCODING 68
SWIDTH 749 0
DWIDTH 14 0
BBX 11 13 2 0
BITMAP
ff00
c1c0
c0c0
c060
c060
c060
c060
c060
c060
c0c0
c0c0
c380
fe00
ENDCHAR
STARTCHAR E
ENCODING 69
SWIDTH 542 0
DWIDTH 10 0
BBX 7 13 2 0
BITMAP
fe
c0
c0
c0
c0
c0
fc
c0
c0
c0
c0
c0
fe
ENDCHAR
STARTCHAR F
ENCODING 70
SWIDTH 536 0
DWIDTH 10 0
BBX 7 13 2 0
BITMAP
fe
c0
c0
c0
c0
c0
fc
c0
c0
c0
c0
c0
c0
ENDCHAR
STARTCHAR G
ENCODING 71
SWIDTH 723 0
DWIDTH 13 0
BBX 11 13 1 0
BITMAP
0fc0
38e0
6000
6000
c000
c000
c000
c060
c060
6060
7060
3860
0fe0
ENDCHAR
STARTCHAR H
ENCODING 72
SWIDTH 735 0
DWIDTH 14 0
BBX 10 13 2 0
BITMAP
c0c0
c0c0
c0c0
c0c0
c0c0
c0c0
ffc0
c0c0
c0c0
c0c0
c0c0
c0c0
c0c0
ENDCHAR
STARTCHAR I
ENCODING 73
SWIDTH 288 0
DWIDTH 6 0
BBX 2 13 2 0
BITMAP
c0
c0
c0
c0
c0
c0
c0
c0
c0
c0
c0
c0
c0
ENDCHAR
STARTCHAR J
ENCODING 74
SWIDTH 311 0
DWIDTH 6 0
BBX 5 15 -1 -2
BITMAP
18
18
18
18
18
18
18
18
18
18
18
18
18
30
e0
ENDCHAR
STARTCHAR K
ENCODING 75
SWIDTH 653 0
DWIDTH 12 0
BBX 10 13 2 0
BITMAP
c180
c300
c600
cc00
d800
f000
f000
d800
cc00
c600
c300
c180
c0c0
ENDCHAR
STARTCHAR L
ENCODING 76
SWIDTH 533 0
DWIDTH 10 0
BBX 7 13 2 0
BITMAP
c0
c0
c0
c0
c0
c0
c0
c0
c0
c0
c0
c0
fe
ENDCHAR
STARTCHAR M
ENCODING 77
SWIDTH 861 0
DWIDTH 16 0
BBX 12 13 2 0
BITMAP
e070
e070
b0b0
b0b0
b0b0
9930
9930
9930
8e30
8e30
8430
8430
8030
ENDCHAR
STARTCHAR N
ENCODING 78
SWIDTH 741 0
DWIDTH 14 0
BBX 10 13 2 0
BITMAP
c040
e040
f040
b040
9840
9c40
8c40
8640
8740
8340
81c0
81c0
80c0
ENDCHAR
STARTCHAR O
ENCODING 79
SWIDTH 777 0
DWIDTH 14 0
BBX 12 13 1 0
BITMAP
0f00
39c0
6060
6060
c030
c030
c030
c030
c030
6060
6060
39c0
0f00
ENDCHAR
STARTCHAR P
ENCODING 80
SWIDTH 553 0
DWIDTH 11 0
BBX 8 13 2 0
BITMAP
fe
c7
c3
c3
c3
c3
c6
f8
c0
c0
c0
c0
c0
ENDCHAR
STARTCHAR Q
ENCODING 81
SWIDTH 777 0
DWIDTH 14 0
BBX 13 16 1 -3
BITMAP
0f00
39c0
6060
6060
c030
c030
c030
c030
c030
6060
6060
39c0
0f00
01c0
0070
0038
ENDCHAR
STARTCHAR R
ENCODING 82
SWIDTH 633 0
DWIDTH 12 0
BBX 9 13 2 0
BITMAP
fe00
c700
c300
c300
c300
c600
f800
cc00
c600
c600
c300
c180
c180
ENDCHAR
STARTCHAR S
ENCODING 83
SWIDTH 539 0
DWIDTH 10 0
BBX 8 13 1 0
BITMAP
3e
67
c0
c0
e0
78
1e
07
03
03
03
e6
7c
ENDCHAR
STARTCHAR T
ENCODING 84
SWIDTH 633 0
DWIDTH 12 0
BBX 12 13 0 0
BITMAP
fff0
0600
0600
0600
0600
0600
0600
0600
0600
0600
0600
0600
0600
ENDCHAR
STARTCHAR U
ENCODING 85
SWIDTH 693 0
DWIDTH 13 0
BBX 9 13 2 0
BITMAP
c180
c180
c180
c180
c180
c180
c180
c180
c180
c180
6300
7700
1c00
ENDCHAR
STARTCHAR V
ENCODING 86
SWIDTH 654 0
DWIDTH 12 0
BBX 10 13 1 0
BITMAP
c0c0
c0c0
c0c0
6080
6180
6180
3100
3300
3300
1a00
1e00
0c00
0c00
ENDCHAR
STARTCHAR W
ENCODING 87
SWIDTH 855 0
DWIDTH 16 0
BBX 14 13 1 0
BITMAP
c00c
c30c
c30c
c78c
c598
6598
6cd8
68d0
68d0
38f0
3060
3060
3060
ENDCHAR
STARTCHAR X
ENCODING 88
SWIDTH 626 0
DWIDTH 11 0
BBX 9 13 1 0
BITMAP
c180
c180
6180
6300
3200
1c00
1c00
1c00
2600
6300
c300
c180
c180
ENDCHAR
STARTCHAR Y
ENCODING 89
SWIDTH 623 0
DWIDTH 12 0
BBX 10 13 1 0
BITMAP
c0c0
c0c0
6180
3100
3300
1e00
0c00
0c00
0c00
0c00
0c00
0c00
0c00
ENDCHAR
STARTCHAR Z
ENCODING 90
SWIDTH 605 0
DWIDTH 11 0
BBX 9 13 1 0
BITMAP
ff80
ff80
0180
0300
0600
0c00
1c00
1800
3000
6000
c000
ff80
ff80
ENDCHAR
STARTCHAR bracketleft
ENCODING 91
SWIDTH 325 0
DWIDTH 6 0
BBX 4 16 1 -2
BITMAP
f0
c0
c0
c0
c0
c0
c0
c0
c0
c0
c0
c0
c0
c0
c0
f0
ENDCHAR
STARTCHAR backslash
ENCODING 92
SWIDTH 494 0
DWIDTH 9 0
BBX 7 16 1 -2
BITMAP
80
80
c0
40
60
20
30
10
10
18
08
0c
04
06
02
02
ENDCHAR
STARTCHAR bracketright
ENCODING 93
SWIDTH 325 0
DWIDTH 6 0
BBX 4 16 1 -2
BITMAP
f0
30
30
30
30
30
30
30
30
30
30
30
30
30
30
f0
ENDCHAR
STARTCHAR asciicircum
ENCODING 94
SWIDTH 633 0
DWIDTH 12 0
BBX 9 10 2 2
BITMAP
0800
1c00
1400
3600
2200
6300
6300
c180
c180
c180
ENDCHAR
STARTCHAR underscore
ENCODING 95
SWIDTH 500 0
DWIDTH 12 0
BBX 10 1 1 -1
BITMAP
ffc0
ENDCHAR
STARTCHAR grave
ENCODING 96
SWIDTH 614 0
DWIDTH 11 0
BBX 4 2 3 11
BITMAP
e0
30
ENDCHAR
STARTCHAR a
ENCODING 97
SWIDTH 552 0
DWIDTH 10 0
BBX 9 10 1 0
BITMAP
3e00
6700
0300
0300
3f00
6300
c300
c300
e700
7980
ENDCHAR
STARTCHAR b
ENCODING 98
SWIDTH 630 0
DWIDTH 12 0
BBX 9 14 2 0
BITMAP
c000
c000
c000
c000
dc00
e700
c300
c180
c180
c180
c180
c300
e700
dc00
ENDCHAR
STARTCHAR c
ENCODING 99
SWIDTH 518 0
DWIDTH 10 0
BBX 8 10 1 0
BITMAP
1e
73
60
c0
c0
c0
c0
60
73
1e
ENDCHAR
STARTCHAR d
ENCODING 100
SWIDTH 630 0
DWIDTH 12 0
BBX 9 14 1 0
BITMAP
0180
0180
0180
0180
1d80
7380
6180
c180
c180
c180
c180
6180
7380
1d80
ENDCHAR
STARTCHAR e
ENCODING 101
SWIDTH 557 0
DWIDTH 10 0
BBX 8 10 1 0
BITMAP
3c
66
c3
c3
ff
c0
c0
e0
73
3e
ENDCHAR
STARTCHAR f
ENCODING 102
SWIDTH 367 0
DWIDTH 7 0
BBX 6 14 1 0
BITMAP
1c
30
60
60
fc
60
60
60
60
60
60
60
60
60
ENDCHAR
STARTCHAR g
ENCODING 103
SWIDTH 623 0
DWIDTH 12 0
BBX 9 13 1 -3
BITMAP
1d80
7380
6180
c180
c180
c180
c180
6380
3d80
0180
0180
6300
3e00
ENDCHAR
STARTCHAR h
ENCODING 104
SWIDTH 620 0
DWIDTH 12 0
BBX 8 14 2 0
BITMAP
c0
c0
c0
c0
de
e7
c3
c3
c3
c3
c3
c3
c3
c3
ENDCHAR
STARTCHAR i
ENCODING 105
SWIDTH 289 0
DWIDTH 6 0
BBX 2 14 2 0
BITMAP
c0
c0
00
00
c0
c0
c0
c0
c0
c0
c0
c0
c0
c0
ENDCHAR
STARTCHAR j
ENCODING 106
SWIDTH 304 0
DWIDTH 6 0
BBX 4 17 0 -3
BITMAP
30
30
00
00
30
30
30
30
30
30
30
30
30
30
30
60
c0
ENDCHAR
STARTCHAR k
ENCODING 107
SWIDTH 585 0
DWIDTH 11 0
BBX 9 14 2 0
BITMAP
c000
c000
c000
c000
c300
c600
cc00
d800
f000
d800
cc00
c600
c300
c180
ENDCHAR
STARTCHAR l
ENCODING 108
SWIDTH 289 0
DWIDTH 6 0
BBX 2 14 2 0
BITMAP
c0
c0
c0
c0
c0
c0
c0
c0
c0
c0
c0
c0
c0
c0
ENDCHAR
STARTCHAR m
ENCODING 109
SWIDTH 934 0
DWIDTH 18 0
BBX 14 10 2 0
BITMAP
de78
e79c
c30c
c30c
c30c
c30c
c30c
c30c
c30c
c30c
ENDCHAR
STARTCHAR n
ENCODING 110
SWIDTH 620 0
DWIDTH 12 0
BBX 8 10 2 0
BITMAP
de
e7
c3
c3
c3
c3
c3
c3
c3
c3
ENDCHAR
STARTCHAR o
ENCODING 111
SWIDTH 614 0
DWIDTH 11 0
BBX 9 10 1 0
BITMAP
1c00
7700
6300
c180
c180
c180
c180
6300
7700
1c00
ENDCHAR
STARTCHAR p
ENCODING 112
SWIDTH 630 0
DWIDTH 12 0
BBX 9 13 2 -3
BITMAP
dc00
e700
c300
c180
c180
c180
c180
c300
e700
dc00
c000
c000
c000
ENDCHAR
STARTCHAR q
ENCODING 113
SWIDTH 630 0
DWIDTH 12 0
BBX 9 13 1 -3
BITMAP
1d80
7380
6180
c180
c180
c180
c180
6180
7380
1d80
0180
0180
0180
ENDCHAR
STARTCHAR r
ENCODING 114
SWIDTH 409 0
DWIDTH 8 0
BBX 6 10 2 0
BITMAP
cc
dc
e0
c0
c0
c0
c0
c0
c0
c0
ENDCHAR
STARTCHAR s
ENCODING 115
SWIDTH 510 0
DWIDTH 9 0
BBX 7 10 1 0
BITMAP
7c
c6
c0
e0
70
1c
0e
06
c6
7c
ENDCHAR
STARTCHAR t
ENCODING 116
SWIDTH 374 0
DWIDTH 7 0
BBX 5 12 1 0
BITMAP
60
60
f8
60
60
60
60
60
60
60
60
38
ENDCHAR
STARTCHAR u
ENCODING 117
SWIDTH 620 0
DWIDTH 12 0
BBX 8 10 2 0
BITMAP
c3
c3
c3
c3
c3
c3
c3
c3
e7
7b
ENDCHAR
STARTCHAR v
ENCODING 118
SWIDTH 572 0
DWIDTH 10 0
BBX 8 10 1 0
BITMAP
c3
c3
c3
62
66
66
34
34
18
18
ENDCHAR
STARTCHAR w
ENCODING 119
SWIDTH 840 0
DWIDTH 16 0
BBX 14 10 1 0
BITMAP
c00c
c30c
c30c
6318
6598
6590
68d0
38f0
3060
3060
ENDCHAR
STARTCHAR x
ENCODING 120
SWIDTH 613 0
DWIDTH 11 0
BBX 8 10 2 0
BITMAP
c3
c3
66
34
38
1c
2c
66
c3
c3
ENDCHAR
STARTCHAR y
ENCODING 121
SWIDTH 568 0
DWIDTH 10 0
BBX 8 13 1 -3
BITMAP
c3
c3
c3
62
66
66
34
3c
18
18
10
30
30
ENDCHAR
STARTCHAR z
ENCODING 122
SWIDTH 573 0
DWIDTH 10 0
BBX 8 10 1 0
BITMAP
ff
03
07
0e
1c
38
70
e0
c0
ff
ENDCHAR
STARTCHAR braceleft
ENCODING 123
SWIDTH 325 0
DWIDTH 6 0
BBX 4 16 1 -2
BITMAP
70
c0
c0
40
60
20
20
c0
20
20
60
40
c0
c0
c0
70
ENDCHAR
STARTCHAR bar
ENCODING 124
SWIDTH 265 0
DWIDTH 4 0
BBX 2 16 1 -2
BITMAP
c0
c0
c0
c0
c0
c0
c0
c0
c0
c0
c0
c0
c0
c0
c0
c0
ENDCHAR
STARTCHAR braceright
ENCODING 125
SWIDTH 325 0
DWIDTH 6 0
BBX 4 16 1 -2
BITMAP
e0
30
30
20
60
40
40
30
40
40
60
20
30
30
30
e0
ENDCHAR
STARTCHAR asciitilde
ENCODING 126
SWIDTH 633 0
DWIDTH 12 0
BBX 9 3 2 4
BITMAP
7080
9c80
8700
ENDCHAR
STARTCHAR nobreakspace
ENCODING 160
SWIDTH 316 0
DWIDTH 5 0
BBX 1 1 0 0
BITMAP
00
ENDCHAR
STARTCHAR Aogonek
ENCODING 161
SWIDTH 690 0
DWIDTH 13 0
BBX 11 16 1 -3
BITMAP
0600
0600
0f00
0b00
1980
1180
3180
20c0
7fc0
60c0
4060
c060
c060
0600
0c00
0700
ENDCHAR
STARTCHAR breve
ENCODING 162
SWIDTH 614 0
DWIDTH 11 0
BBX 5 3 3 11
BITMAP
88
f8
70
ENDCHAR
STARTCHAR Lstroke
ENCODING 163
SWIDTH 533 0
DWIDTH 10 0
BBX 9 13 0 0
BITMAP
3000
3000
3000
3000
3000
3c00
f000
3000
3000
3000
3000
3000
3f80
ENDCHAR
STARTCHAR currency
ENCODING 164
SWIDTH 633 0
DWIDTH 12 0
BBX 11 11 1 1
BITMAP
8020
4040
3f80
3180
60c0
60c0
60c0
3180
3f80
4040
8020
ENDCHAR
STARTCHAR Lcaron
ENCODING 165
SWIDTH 533 0
DWIDTH 10 0
BBX 7 14 2 0
BITMAP
18
d8
c8
d0
c0
c0
c0
c0
c0
c0
c0
c0
c0
fe
ENDCHAR
STARTCHAR Sacute
ENCODING 166
SWIDTH 539 0
DWIDTH 10 0
BBX 8 16 1 0
BITMAP
0e
18
00
3e
67
c0
c0
e0
78
1e
07
03
03
03
e6
7c
ENDCHAR
STARTCHAR section
ENCODING 167
SWIDTH 633 0
DWIDTH 12 0
BBX 8 15 2 -2
BITMAP
7e
e3
c0
e0
78
5e
c7
c3
e3
7a
1e
07
03
c7
7e
ENDCHAR
STARTCHAR diaeresis
ENCODING 168
SWIDTH 614 0
DWIDTH 11 0
BBX 6 2 3 11
BITMAP
cc
cc
ENDCHAR
STARTCHAR Scaron
ENCODING 169
SWIDTH 539 0
DWIDTH 10 0
BBX 8 16 1 0
BITMAP
6c
38
00
3e
67
c0
c0
e0
78
1e
07
03
03
03
e6
7c
ENDCHAR
STARTCHAR Scedilla
ENCODING 170
SWIDTH 539 0
DWIDTH 10 0
BBX 8 16 1 -3
BITMAP
3e
67
c0
c0
e0
78
1e
07
03
03
03
e6
7c
18
0c
38
ENDCHAR
STARTCHAR Tcaron
ENCODING 171
SWIDTH 633 0
DWIDTH 12 0
BBX 12 16 0 0
BITMAP
1b00
0e00
0000
fff0
0600
0600
0600
0600
0600
0600
0600
0600
0600
0600
0600
0600
ENDCHAR
STARTCHAR Zacute
ENCODING 172
SWIDTH 605 0
DWIDTH 11 0
BBX 9 16 1 0
BITMAP
0700
0c00
0000
ff80
ff80
0180
0300
0600
0c00
1c00
1800
3000
6000
c000
ff80
ff80
ENDCHAR
STARTCHAR hyphen
ENCODING 173
SWIDTH 325 0
DWIDTH 6 0
BBX 4 1 1 5
BITMAP
f0
ENDCHAR
STARTCHAR Zcaron
ENCODING 174
SWIDTH 605 0
DWIDTH 11 0
BBX 9 16 1 0
BITMAP
3600
1c00
0000
ff80
ff80
0180
0300
0600
0c00
1c00
1800
3000
6000
c000
ff80
ff80
ENDCHAR
STARTCHAR Zabovedot
ENCODING 175
SWIDTH 605 0
DWIDTH 11 0
BBX 9 16 1 0
BITMAP
0c00
0c00
0000
ff80
ff80
0180
0300
0600
0c00
1c00
1800
3000
6000
c000
ff80
ff80
ENDCHAR
STARTCHAR degree
ENCODING 176
SWIDTH 277 0
DWIDTH 5 0
BBX 4 4 1 10
BITMAP
60
90
90
60
ENDCHAR
STARTCHAR aogonek
ENCODING 177
SWIDTH 552 0
DWIDTH 10 0
BBX 9 13 1 -3
BITMAP
3e00
6700
0300
0300
3f00
6300
c300
c300
e700
7980
0c00
1800
0e00
ENDCHAR
STARTCHAR ogonek
ENCODING 178
SWIDTH 614 0
DWIDTH 11 0
BBX 4 3 4 -3
BITMAP
60
c0
70
ENDCHAR
STARTCHAR lstroke
ENCODING 179
SWIDTH 289 0
DWIDTH 6 0
BBX 6 14 0 0
BITMAP
30
30
30
30
30
3c
f0
30
30
30
30
30
30
30
ENDCHAR
STARTCHAR acute
ENCODING 180
SWIDTH 614 0
DWIDTH 11 0
BBX 4 2 4 11
BITMAP
70
c0
ENDCHAR
STARTCHAR lcaron
ENCODING 181
SWIDTH 500 0
DWIDTH 9 0
BBX 5 15 2 0
BITMAP
18
d8
c8
d0
c0
c0
c0
c0
c0
c0
c0
c0
c0
c0
c0
ENDCHAR
STARTCHAR sacute
ENCODING 182
SWIDTH 510 0
DWIDTH 9 0
BBX 7 13 1 0
BITMAP
0e
18
00
7c
c6
c0
e0
70
1c
0e
06
c6
7c
ENDCHAR
STARTCHAR caron
ENCODING 183
SWIDTH 614 0
DWIDTH 11 0
BBX 5 2 3 11
BITMAP
d8
70
ENDCHAR
STARTCHAR cedilla
ENCODING 184
SWIDTH 614 0
DWIDTH 11 0
BBX 4 3 3 -3
BITMAP
60
30
e0
ENDCHAR
STARTCHAR scaron
ENCODING 185
SWIDTH 510 0
DWIDTH 9 0
BBX 7 13 1 0
BITMAP
6c
38
00
7c
c6
c0
e0
70
1c
0e
06
c6
7c
ENDCHAR
STARTCHAR scedilla
ENCODING 186
SWIDTH 510 0
DWIDTH 9 0
BBX 7 13 1 -3
BITMAP
7c
c6
c0
e0
70
1c
0e
06
c6
7c
18
0c
38
ENDCHAR
STARTCHAR tcaron
ENCODING 187
SWIDTH 444 0
DWIDTH 8 0
BBX 6 15 1 0
BITMAP
0c
0c
04
68
60
f8
60
60
60
60
60
60
60
60
38
ENDCHAR
STARTCHAR zacute
ENCODING 188
SWIDTH 573 0
DWIDTH 10 0
BBX 8 13 1 0
BITMAP
0e
18
00
ff
03
07
0e
1c
38
70
e0
c0
ff
ENDCHAR
STARTCHAR doubleacute
ENCODING 189
SWIDTH 614 0
DWIDTH 11 0
BBX 5 3 3 11
BITMAP
48
d8
90
ENDCHAR
STARTCHAR zcaron
ENCODING 190
SWIDTH 573 0
DWIDTH 10 0
BBX 8 13 1 0
BITMAP
6c
38
00
ff
03
07
0e
1c
38
70
e0
c0
ff
ENDCHAR
STARTCHAR zabovedot
ENCODING 191
SWIDTH 573 0
DWIDTH 10 0
BBX 8 13 1 0
BITMAP
18
18
00
ff
03
07
0e
1c
38
70
e0
c0
ff
ENDCHAR
STARTCHAR Racute
ENCODING 192
SWIDTH 633 0
DWIDTH 12 0
BBX 9 16 2 0
BITMAP
0e00
1800
0000
fe00
c700
c300
c300
c300
c600
f800
cc00
c600
c600
c300
c180
c180
ENDCHAR
STARTCHAR Aacute
ENCODING 193
SWIDTH 690 0
DWIDTH 13 0
BBX 11 16 1 0
BITMAP
0700
0c00
0000
0600
0600
0f00
0b00
1980
1180
3180
20c0
7fc0
60c0
4060
c060
c060
ENDCHAR
STARTCHAR Acircumflex
ENCODING 194
SWIDTH 690 0
DWIDTH 13 0
BBX 11 16 1 0
BITMAP
0e00
1b00
0000
0600
0600
0f00
0b00
1980
1180
3180
20c0
7fc0
60c0
4060
c060
c060
ENDCHAR
STARTCHAR Abreve
ENCODING 195
SWIDTH 690 0
DWIDTH 13 0
BBX 11 17 1 0
BITMAP
1100
1f00
0e00
0000
0600
0600
0f00
0b00
1980
1180
3180
20c0
7fc0
60c0
4060
c060
c060
ENDCHAR
STARTCHAR Adiaeresis
ENCODING 196
SWIDTH 690 0
DWIDTH 13 0
BBX 11 16 1 0
BITMAP
1980
1980
0000
0600
0600
0f00
0b00
1980
1180
3180
20c0
7fc0
60c0
4060
c060
c060
ENDCHAR
STARTCHAR Lacute
ENCODING 197
SWIDTH 533 0
DWIDTH 10 0
BBX 7 16 2 0
BITMAP
70
c0
00
c0
c0
c0
c0
c0
c0
c0
c0
c0
c0
c0
c0
fe
ENDCHAR
STARTCHAR Cacute
ENCODING 198
SWIDTH 692 0
DWIDTH 13 0
BBX 11 16 1 0
BITMAP
0380
0600
0000
0fc0
38e0
6000
6000
c000
c000
c000
c000
c000
6000
7000
38e0
0fc0
ENDCHAR
STARTCHAR Ccedilla
ENCODING 199
SWIDTH 692 0
DWIDTH 13 0
BBX 11 16 1 -3
BITMAP
0fc0
38e0
6000
6000
c000
c000
c000
c000
c000
6000
7000
38e0
0fc0
0c00
0600
1c00
ENDCHAR
STARTCHAR Ccaron
ENCODING 200
SWIDTH 692 0
DWIDTH 13 0
BBX 11 16 1 0
BITMAP
1b00
0e00
0000
0fc0
38e0
6000
6000
c000
c000
c000
c000
c000
6000
7000
38e0
0fc0
ENDCHAR
STARTCHAR Eacute
ENCODING 201
SWIDTH 542 0
DWIDTH 10 0
BBX 7 16 2 0
BITMAP
1c
30
00
fe
c0
c0
c0
c0
c0
fc
c0
c0
c0
c0
c0
fe
ENDCHAR
STARTCHAR Eogonek
ENCODING 202
SWIDTH 542 0
DWIDTH 10 0
BBX 7 16 2 -3
BITMAP
fe
c0
c0
c0
c0
c0
fc
c0
c0
c0
c0
c0
fe
18
30
1c
ENDCHAR
STARTCHAR Ediaeresis
ENCODING 203
SWIDTH 542 0
DWIDTH 10 0
BBX 7 16 2 0
BITMAP
66
66
00
fe
c0
c0
c0
c0
c0
fc
c0
c0
c0
c0
c0
fe
ENDCHAR
STARTCHAR Ecaron
ENCODING 204
SWIDTH 542 0
DWIDTH 10 0
BBX 7 16 2 0
BITMAP
6c
38
00
fe
c0
c0
c0
c0
c0
fc
c0
c0
c0
c0
c0
fe
ENDCHAR
STARTCHAR Iacute
ENCODING 205
SWIDTH 288 0
DWIDTH 6 0
BBX 4 16 1 0
BITMAP
70
c0
00
60
60
60
60
60
60
60
60
60
60
60
60
60
ENDCHAR
STARTCHAR Icircumflex
ENCODING 206
SWIDTH 288 0
DWIDTH 6 0
BBX 5 16 1 0
BITMAP
70
d8
00
60
60
60
60
60
60
60
60
60
60
60
60
60
ENDCHAR
STARTCHAR Dcaron
ENCODING 207
SWIDTH 749 0
DWIDTH 14 0
BBX 11 16 2 0
BITMAP
3600
1c00
0000
ff00
c1c0
c0c0
c060
c060
c060
c060
c060
c060
c0c0
c0c0
c380
fe00
ENDCHAR
STARTCHAR Dstroke
ENCODING 208
SWIDTH 749 0
DWIDTH 14 0
BBX 13 13 0 0
BITMAP
3fc0
3070
3030
3018
3018
3018
fc18
3018
3018
3030
3030
30e0
3f80
ENDCHAR
STARTCHAR Nacute
ENCODING 209
SWIDTH 741 0
DWIDTH 14 0
BBX 10 16 2 0
BITMAP
0700
0c00
0000
c040
e040
f040
b040
9840
9c40
8c40
8640
8740
8340
81c0
81c0
80c0
ENDCHAR
STARTCHAR Ncaron
ENCODING 210
SWIDTH 741 0
DWIDTH 14 0
BBX 10 16 2 0
BITMAP
3600
1c00
0000
c040
e040
f040
b040
9840
9c40
8c40
8640
8740
8340
81c0
81c0
80c0
ENDCHAR
STARTCHAR Oacute
ENCODING 211
SWIDTH 777 0
DWIDTH 14 0
BBX 12 16 1 0
BITMAP
0700
0c00
0000
0f00
39c0
6060
6060
c030
c030
c030
c030
c030
6060
6060
39c0
0f00
ENDCHAR
STARTCHAR Ocircumflex
ENCODING 212
SWIDTH 777 0
DWIDTH 14 0
BBX 12 16 1 0
BITMAP
0700
0d80
0000
0f00
39c0
6060
6060
c030
c030
c030
c030
c030
6060
6060
39c0
0f00
ENDCHAR
STARTCHAR Odoubleacute
ENCODING 213
SWIDTH 777 0
DWIDTH 14 0
BBX 12 17 1 0
BITMAP
0480
0d80
0900
0000
0f00
39c0
6060
6060
c030
c030
c030
c030
c030
6060
6060
39c0
0f00
ENDCHAR
STARTCHAR Odiaeresis
ENCODING 214
SWIDTH 777 0
DWIDTH 14 0
BBX 12 16 1 0
BITMAP
1980
1980
0000
0f00
39c0
6060
6060
c030
c030
c030
c030
c030
6060
6060
39c0
0f00
ENDCHAR
STARTCHAR multiply
ENCODING 215
SWIDTH 633 0
DWIDTH 12 0
BBX 7 7 3 2
BITMAP
c2
64
38
10
38
4c
86
ENDCHAR
STARTCHAR Rcaron
ENCODING 216
SWIDTH 633 0
DWIDTH 12 0
BBX 9 16 2 0
BITMAP
6c00
3800
0000
fe00
c700
c300
c300
c300
c600
f800
cc00
c600
c600
c300
c180
c180
ENDCHAR
STARTCHAR Uring
ENCODING 217
SWIDTH 693 0
DWIDTH 13 0
BBX 9 17 2 0
BITMAP
1c00
2600
1c00
0000
c180
c180
c180
c180
c180
c180
c180
c180
c180
c180
6300
7700
1c00
ENDCHAR
STARTCHAR Uacute
ENCODING 218
SWIDTH 693 0
DWIDTH 13 0
BBX 9 16 2 0
BITMAP
0e00
1800
0000
c180
c180
c180
c180
c180
c180
c180
c180
c180
c180
6300
7700
1c00
ENDCHAR
STARTCHAR Udoubleacute
ENCODING 219
SWIDTH 693 0
DWIDTH 13 0
BBX 9 17 2 0
BITMAP
0900
1b00
1200
0000
c180
c180
c180
c180
c180
c180
c180
c180
c180
c180
6300
7700
1c00
ENDCHAR
STARTCHAR Udiaeresis
ENCODING 220
SWIDTH 693 0
DWIDTH 13 0
BBX 9 16 2 0
BITMAP
3300
3300
0000
c180
c180
c180
c180
c180
c180
c180
c180
c180
c180
6300
7700
1c00
ENDCHAR
STARTCHAR Yacute
ENCODING 221
SWIDTH 623 0
DWIDTH 12 0
BBX 10 16 1 0
BITMAP
0700
0c00
0000
c0c0
c0c0
6180
3100
3300
1e00
0c00
0c00
0c00
0c00
0c00
0c00
0c00
ENDCHAR
STARTCHAR Tcedilla
ENCODING 222
SWIDTH 633 0
DWIDTH 12 0
BBX 12 16 0 -3
BITMAP
fff0
0600
0600
0600
0600
0600
0600
0600
0600
0600
0600
0600
0600
0600
0300
0e00
ENDCHAR
STARTCHAR ssharp
ENCODING 223
SWIDTH 598 0
DWIDTH 11 0
BBX 8 14 2 0
BITMAP
3c
46
c6
c4
c8
d8
dc
ce
c6
c7
c3
c3
c3
ce
ENDCHAR
STARTCHAR racute
ENCODING 224
SWIDTH 409 0
DWIDTH 8 0
BBX 6 13 2 0
BITMAP
1c
30
00
cc
dc
e0
c0
c0
c0
c0
c0
c0
c0
ENDCHAR
STARTCHAR aacute
ENCODING 225
SWIDTH 552 0
DWIDTH 10 0
BBX 9 13 1 0
BITMAP
0e00
1800
0000
3e00
6700
0300
0300
3f00
6300
c300
c300
e700
7980
ENDCHAR
STARTCHAR acircumflex
ENCODING 226
SWIDTH 552 0
DWIDTH 10 0
BBX 9 13 1 0
BITMAP
1c00
3600
0000
3e00
6700
0300
0300
3f00
6300
c300
c300
e700
7980
ENDCHAR
STARTCHAR abreve
ENCODING 227
SWIDTH 552 0
DWIDTH 10 0
BBX 9 14 1 0
BITMAP
2200
3e00
1c00
0000
3e00
6700
0300
0300
3f00
6300
c300
c300
e700
7980
ENDCHAR
STARTCHAR adiaeresis
ENCODING 228
SWIDTH 552 0
DWIDTH 10 0
BBX 9 13 1 0
BITMAP
6600
6600
0000
3e00
6700
0300
0300
3f00
6300
c300
c300
e700
7980
ENDCHAR
STARTCHAR lacute
ENCODING 229
SWIDTH 289 0
DWIDTH 6 0
BBX 4 17 2 0
BITMAP
70
c0
00
c0
c0
c0
c0
c0
c0
c0
c0
c0
c0
c0
c0
c0
c0
ENDCHAR
STARTCHAR cacute
ENCODING 230
SWIDTH 518 0
DWIDTH 10 0
BBX 8 13 1 0
BITMAP
07
0c
00
1e
73
60
c0
c0
c0
c0
60
73
1e
ENDCHAR
STARTCHAR ccedilla
ENCODING 231
SWIDTH 518 0
DWIDTH 10 0
BBX 8 13 1 -3
BITMAP
1e
73
60
c0
c0
c0
c0
60
73
1e
18
0c
38
ENDCHAR
STARTCHAR ccaron
ENCODING 232
SWIDTH 518 0
DWIDTH 10 0
BBX 8 13 1 0
BITMAP
36
1c
00
1e
73
60
c0
c0
c0
c0
60
73
1e
ENDCHAR
STARTCHAR eacute
ENCODING 233
SWIDTH 557 0
DWIDTH 10 0
BBX 8 13 1 0
BITMAP
0e
18
00
3c
66
c3
c3
ff
c0
c0
e0
73
3e
ENDCHAR
STARTCHAR eogonek
ENCODING 234
SWIDTH 557 0
DWIDTH 10 0
BBX 8 13 1 -3
BITMAP
3c
66
c3
c3
ff
c0
c0
e0
73
3e
18
30
1c
ENDCHAR
STARTCHAR ediaeresis
ENCODING 235
SWIDTH 557 0
DWIDTH 10 0
BBX 8 13 1 0
BITMAP
66
66
00
3c
66
c3
c3
ff
c0
c0
e0
73
3e
ENDCHAR
STARTCHAR ecaron
ENCODING 236
SWIDTH 557 0
DWIDTH 10 0
BBX 8 13 1 0
BITMAP
6c
38
00
3c
66
c3
c3
ff
c0
c0
e0
73
3e
ENDCHAR
STARTCHAR iacute
ENCODING 237
SWIDTH 289 0
DWIDTH 6 0
BBX 4 13 2 0
BITMAP
70
c0
00
c0
c0
c0
c0
c0
c0
c0
c0
c0
c0
ENDCHAR
STARTCHAR icircumflex
ENCODING 238
SWIDTH 289 0
DWIDTH 6 0
BBX 5 13 1 0
BITMAP
70
d8
00
60
60
60
60
60
60
60
60
60
60
ENDCHAR
STARTCHAR dcaron
ENCODING 239
SWIDTH 833 0
DWIDTH 15 0
BBX 12 15 1 0
BITMAP
0030
01b0
0190
01a0
0180
1d80
7380
6180
c180
c180
c180
c180
6180
7380
1d80
ENDCHAR
STARTCHAR dstroke
ENCODING 240
SWIDTH 833 0
DWIDTH 15 0
BBX 12 14 1 0
BITMAP
0180
0ff0
0180
0180
1d80
7380
6180
c180
c180
c180
c180
6180
7380
1d80
ENDCHAR
STARTCHAR nacute
ENCODING 241
SWIDTH 620 0
DWIDTH 12 0
BBX 8 13 2 0
BITMAP
0e
18
00
de
e7
c3
c3
c3
c3
c3
c3
c3
c3
ENDCHAR
STARTCHAR ncaron
ENCODING 242
SWIDTH 620 0
DWIDTH 12 0
BBX 8 13 2 0
BITMAP
6c
38
00
de
e7
c3
c3
c3
c3
c3
c3
c3
c3
ENDCHAR
STARTCHAR oacute
ENCODING 243
SWIDTH 614 0
DWIDTH 11 0
BBX 9 13 1 0
BITMAP
0e00
1800
0000
1c00
7700
6300
c180
c180
c180
c180
6300
7700
1c00
ENDCHAR
STARTCHAR ocircumflex
ENCODING 244
SWIDTH 614 0
DWIDTH 11 0
BBX 9 13 1 0
BITMAP
1c00
3600
0000
1c00
7700
6300
c180
c180
c180
c180
6300
7700
1c00
ENDCHAR
STARTCHAR odoubleacute
ENCODING 245
SWIDTH 614 0
DWIDTH 11 0
BBX 9 14 1 0
BITMAP
0900
1b00
1200
0000
1c00
7700
6300
c180
c180
c180
c180
6300
7700
1c00
ENDCHAR
STARTCHAR odiaeresis
ENCODING 246
SWIDTH 614 0
DWIDTH 11 0
BBX 9 13 1 0
BITMAP
3300
3300
0000
1c00
7700
6300
c180
c180
c180
c180
6300
7700
1c00
ENDCHAR
STARTCHAR division
ENCODING 247
SWIDTH 633 0
DWIDTH 12 0
BBX 9 9 2 1
BITMAP
0800
0800
0000
0000
ff80
0000
0000
0800
0800
ENDCHAR
STARTCHAR rcaron
ENCODING 248
SWIDTH 409 0
DWIDTH 8 0
BBX 6 13 2 0
BITMAP
d8
70
00
cc
dc
e0
c0
c0
c0
c0
c0
c0
c0
ENDCHAR
STARTCHAR uring
ENCODING 249
SWIDTH 620 0
DWIDTH 12 0
BBX 8 14 2 0
BITMAP
38
4c
38
00
c3
c3
c3
c3
c3
c3
c3
c3
e7
7b
ENDCHAR
STARTCHAR uacute
ENCODING 250
SWIDTH 620 0
DWIDTH 12 0
BBX 8 13 2 0
BITMAP
1c
30
00
c3
c3
c3
c3
c3
c3
c3
c3
e7
7b
ENDCHAR
STARTCHAR udoubleacute
ENCODING 251
SWIDTH 620 0
DWIDTH 12 0
BBX 8 14 2 0
BITMAP
12
36
24
00
c3
c3
c3
c3
c3
c3
c3
c3
e7
7b
ENDCHAR
STARTCHAR udiaeresis
ENCODING 252
SWIDTH 620 0
DWIDTH 12 0
BBX 8 13 2 0
BITMAP
66
66
00
c3
c3
c3
c3
c3
c3
c3
c3
e7
7b
ENDCHAR
STARTCHAR yacute
ENCODING 253
SWIDTH 568 0
DWIDTH 10 0
BBX 8 16 1 -3
BITMAP
0e
18
00
c3
c3
c3
62
66
66
34
3c
18
18
10
30
30
ENDCHAR
STARTCHAR tcedilla
ENCODING 254
SWIDTH 374 0
DWIDTH 7 0
BBX 5 15 1 -3
BITMAP
60
60
f8
60
60
60
60
60
60
60
60
38
30
18
70
ENDCHAR
STARTCHAR abovedot
ENCODING 255
SWIDTH 614 0
DWIDTH 11 0
BBX 2 2 5 11
BITMAP
c0
c0
ENDCHAR
ENDFONT
